# This file uses centimeters as units for non-parametric coordinates.

g default
v -0.063622 0.000159 0.610975
v -0.063622 0.014786 0.646334
v -0.063622 0.050131 0.660994
v 0.063622 0.000159 0.610975
v 0.063622 0.050131 0.660994
v 0.063622 0.014786 0.646334
v -0.063622 0.950141 0.661414
v -0.063622 0.985499 0.646787
v -0.063622 1.000159 0.611442
v 0.063622 1.000159 0.611442
v 0.063622 0.985499 0.646787
v 0.063622 0.950141 0.661414
v -0.063622 1.000730 -0.610975
v -0.063622 0.986103 -0.646334
v -0.063622 0.950759 -0.660994
v 0.063622 0.950759 -0.660994
v 0.063622 0.986103 -0.646334
v 0.063622 1.000730 -0.610975
v -0.063622 0.050749 -0.661414
v -0.063622 0.015390 -0.646787
v -0.063622 0.000730 -0.611442
v 0.063622 0.000730 -0.611442
v 0.063622 0.015390 -0.646787
v 0.063622 0.050749 -0.661414
v -0.063622 1.000445 0.000234
v 0.063622 1.000445 0.000234
v 0.063622 0.985801 0.000227
v 0.063622 0.950450 0.000210
v 0.063622 0.050440 -0.000210
v 0.063622 0.015088 -0.000227
v 0.063622 0.000445 -0.000234
v -0.063622 0.000445 -0.000234
vt 0.239252 0.790460
vt 0.044842 0.074655
vt 0.044399 0.719294
vt 0.243491 0.819810
vt 0.018977 0.820259
vt 0.499753 0.755297
vt 0.014739 0.790909
vt 0.860192 0.789218
vt 0.864431 0.818569
vt 0.955158 0.719682
vt 0.955602 0.075043
vt 0.749133 0.818799
vt 0.744894 0.789449
vt 0.728050 0.789483
vt 0.732289 0.818833
vt 0.507775 0.819282
vt 0.503536 0.789931
vt 0.054945 0.049339
vt 0.486691 0.789965
vt 0.490930 0.819316
vt 0.375633 0.819546
vt 0.371394 0.790195
vt 0.054466 0.744619
vt 0.248493 0.790441
vt 0.252732 0.819792
vt 0.945055 0.744999
vt 0.256097 0.790426
vt 0.945534 0.049718
vt 0.499760 0.744809
vt 0.499778 0.719487
vt 0.500222 0.074849
vt 0.500239 0.049528
vt 0.500247 0.039040
vt 0.079300 0.038861
vt 0.260336 0.819777
vt 0.920700 0.755477
vt 0.975489 0.788988
vt 0.983093 0.788973
vt 0.921193 0.039219
vt 0.009736 0.820278
vt 0.979728 0.818338
vt 0.737291 0.789464
vt 0.741530 0.818815
vt 0.078806 0.755118
vt 0.494295 0.789950
vt 0.498534 0.819300
vt 0.005497 0.790927
vt 0.987331 0.818323
vn 0.000000 -0.016120 0.999870
vn 0.000000 -0.016120 0.999870
vn 0.000000 0.015186 0.999885
vn 0.000000 0.015186 0.999885
vn 0.000000 1.000000 0.000467
vn 0.000000 1.000000 0.000467
vn 0.000000 0.999754 -0.022175
vn 0.000000 0.999754 -0.022175
vn 0.000000 0.016120 -0.999870
vn 0.000000 0.016120 -0.999870
vn 0.000000 -0.015186 -0.999885
vn 0.000000 -0.015186 -0.999885
vn 0.000000 -0.999733 -0.023109
vn 0.000000 -0.999733 -0.023109
vn 0.000000 -1.000000 -0.000467
vn 0.000000 -1.000000 -0.000467
vn 0.000000 -0.383116 0.923700
vn 0.000000 -0.383116 0.923700
vn 0.000000 -0.924057 0.382256
vn 0.000000 -0.999754 0.022175
vn 0.000000 -0.999754 0.022175
vn 0.000000 -0.924057 0.382256
vn 0.000000 0.999733 0.023109
vn 0.000000 0.923701 0.383114
vn 0.000000 0.923701 0.383114
vn 0.000000 0.999733 0.023109
vn 0.000000 0.382248 0.924060
vn 0.000000 0.382248 0.924060
vn 0.000000 0.383118 -0.923699
vn 0.000000 0.383118 -0.923699
vn 0.000000 0.924057 -0.382256
vn 0.000000 0.924057 -0.382256
vn 0.000000 -0.923701 -0.383115
vn 0.000000 -0.923701 -0.383115
vn 0.000000 -0.382251 -0.924058
vn 0.000000 -0.382251 -0.924058
vn 1.000000 0.000000 0.000000
vn 1.000000 0.000000 0.000000
vn 1.000000 0.000000 0.000000
vn 1.000000 0.000000 0.000000
vn 1.000000 0.000000 0.000000
vn 1.000000 0.000000 0.000000
vn 1.000000 0.000000 0.000000
vn 1.000000 0.000000 0.000000
vn 1.000000 0.000000 0.000000
vn 1.000000 0.000000 0.000000
vn 1.000000 0.000000 0.000000
vn 1.000000 0.000000 0.000000
vn 1.000000 0.000000 0.000000
vn 1.000000 0.000000 0.000000
vn 1.000000 0.000000 0.000000
vn 1.000000 0.000000 0.000000
vn 1.000000 0.000000 0.000000
vn 1.000000 0.000000 0.000000
s 1
g pCube1
f 3/1/1 5/4/2 12/5/3 7/7/4
s 2
f 25/8/5 26/9/6 18/12/7 13/13/8
s 3
f 15/14/9 16/15/10 24/16/11 19/17/12
s 4
f 21/19/13 22/20/14 31/21/15 32/22/16
s 1
f 3/1/1 2/24/17 6/25/18 5/4/2
s 4
f 2/24/19 1/27/20 4/35/21 6/25/22
s 2
f 9/37/23 8/38/24 11/48/25 10/41/26
s 1
f 8/47/27 7/7/4 12/5/3 11/40/28
s 3
f 15/14/9 14/42/29 17/43/30 16/15/10
s 2
f 14/42/31 13/13/8 18/12/7 17/43/32
s 4
f 21/19/13 20/45/33 23/46/34 22/20/14
s 3
f 20/45/35 19/17/12 24/16/11 23/46/36
s 5
f 16/10/37 17/26/38 27/29/39 28/30/40
f 26/6/41 27/29/39 17/26/38 18/36/42
f 24/11/43 29/31/44 30/32/45 23/28/46
f 23/28/46 30/32/45 31/33/47 22/39/48
f 16/10/37 28/30/40 29/31/44 24/11/43
s 2
f 9/37/23 10/41/26 26/9/6 25/8/5
s 5
f 11/23/49 27/29/39 26/6/41 10/44/50
f 28/30/40 27/29/39 11/23/49 12/3/51
f 29/31/44 28/30/40 12/3/51 5/2/52
f 30/32/45 29/31/44 5/2/52 6/18/53
f 31/33/47 30/32/45 6/18/53 4/34/54
s 4
f 32/22/16 31/21/15 4/35/21 1/27/20
