# This file uses centimeters as units for non-parametric coordinates.

g default
v -2.053965 -2.520294 6.726834
v -2.343518 -2.520294 6.328300
v -2.812023 -2.520294 6.176073
v -3.280529 -2.520294 6.328300
v -3.570081 -2.520294 6.726834
v -3.570081 -2.520294 7.219450
v -3.280528 -2.520294 7.617984
v -2.812023 -2.520294 7.770211
v -2.343518 -2.520294 7.617984
v -2.053966 -2.520294 7.219450
v -2.812023 -4.775497 6.973142
v -1.740984 -4.090958 6.625141
v -2.150085 -4.090958 6.062062
v -2.812023 -4.090958 5.846985
v -3.473962 -4.090958 6.062063
v -3.883062 -4.090958 6.625141
v -3.883062 -4.090958 7.321144
v -3.473961 -4.090958 7.884222
v -2.812023 -4.090958 8.099298
v -2.150085 -4.090958 7.884222
v -1.740985 -4.090958 7.321144
v -1.980644 -2.980743 6.703010
v -1.980644 -2.980743 7.243273
v -2.298203 -2.980743 7.680356
v -2.812023 -2.980743 7.847306
v -3.325844 -2.980743 7.680356
v -3.643402 -2.980743 7.243273
v -3.643402 -2.980743 6.703010
v -3.325844 -2.980743 6.265929
v -2.812023 -2.980743 6.098978
v -2.298202 -2.980743 6.265928
v -2.222744 -2.520294 6.781673
v -2.447829 -2.520294 6.471872
v -2.812023 -2.520294 6.353537
v -3.176218 -2.520294 6.471872
v -3.401302 -2.520294 6.781673
v -3.401302 -2.520294 7.164610
v -3.176218 -2.520294 7.474412
v -2.812023 -2.520294 7.592746
v -2.447829 -2.520294 7.474412
v -2.222744 -2.520294 7.164610
v -2.222744 -2.858704 6.781673
v -2.812023 -2.858704 6.973142
v -2.447829 -2.858704 6.471872
v -2.812023 -2.858704 6.353537
v -3.176218 -2.858704 6.471861
v -3.401302 -2.858704 6.781673
v -3.401302 -2.858704 7.164610
v -3.176218 -2.858704 7.474412
v -2.812023 -2.858704 7.592746
v -2.447829 -2.858704 7.474423
v -2.222744 -2.858704 7.164610
v -1.625582 -4.152374 5.366582
v -1.830800 -4.384308 5.165029
v -2.161666 -4.431213 5.010425
v -2.491700 -4.274902 4.961668
v -2.695131 -3.975937 5.037817
v -2.694369 -3.648849 5.209927
v -2.490007 -3.419495 5.412693
v -2.159630 -3.374069 5.567993
v -1.828594 -3.527344 5.615316
v -1.624322 -3.823776 5.537981
v 0.548886 -0.202728 0.026717
v 0.351918 -0.423767 -0.168724
v 0.032873 -0.469437 -0.317530
v -0.285486 -0.319565 -0.364131
v -0.482796 -0.035141 -0.288990
v -0.483768 0.274933 -0.120685
v -0.288131 0.491943 0.076641
v 0.030568 0.536575 0.225930
v 0.349940 0.389755 0.271106
v 0.548066 0.107834 0.194798
v -0.223785 -1.237442 2.133346
v -0.387595 -1.422272 1.972105
v -0.651779 -1.459259 1.848346
v -0.915759 -1.335266 1.809819
v -1.078706 -1.097672 1.871242
v -1.078392 -0.837219 2.009174
v -0.915760 -0.655930 2.172089
v -0.651576 -0.618942 2.295838
v -0.387064 -0.741333 2.333611
v -0.223471 -0.976990 2.271279
v -0.994252 -2.754837 3.761634
v -1.172022 -2.956818 3.588365
v -1.457776 -2.997406 3.454898
v -1.742440 -2.861374 3.412320
v -1.917864 -2.602432 3.477713
v -1.916977 -2.319305 3.626010
v -1.741385 -2.123917 3.802378
v -1.456373 -2.085571 3.936897
v -1.169651 -2.215363 3.976558
v -0.993174 -2.471130 3.909663
v -1.981388 -4.559402 6.319099
v -2.263122 -4.876007 6.204736
v -2.678849 -4.949173 6.065811
v -3.055934 -4.745193 5.959868
v -3.246072 -4.349686 5.929362
v -3.182502 -3.933441 5.982477
v -2.904815 -3.646790 6.095827
v -2.497815 -3.584442 6.232835
v -2.134090 -3.765793 6.332813
v -1.933113 -4.130524 6.366438
v -1.628246 -4.938370 6.588509
v -1.708578 -5.012573 6.614611
v -2.080409 -4.938370 5.966161
v -2.130057 -5.012573 6.034496
v -2.812023 -4.938370 5.728446
v -2.812023 -5.012573 5.812912
v -3.543638 -4.938370 5.966161
v -3.493990 -5.012573 6.034496
v -3.995800 -4.938370 6.588510
v -3.915468 -5.012573 6.614612
v -3.995800 -4.938370 7.357775
v -3.915468 -5.012573 7.331673
v -3.543637 -4.938370 7.980123
v -3.493989 -5.012573 7.911788
v -2.812023 -4.938370 8.217838
v -2.812023 -5.012573 8.133373
v -2.080409 -4.938370 7.980122
v -2.130057 -5.012573 7.911788
v -1.628247 -4.938370 7.357775
v -1.708579 -5.012573 7.331673
vt 0.767012 0.742135
vt 0.753653 0.782755
vt 0.667476 0.760209
vt 0.684186 0.709604
vt 0.784987 0.703265
vt 0.706551 0.661331
vt 0.807321 0.666689
vt 0.734295 0.615984
vt 0.833704 0.632900
vt 0.767070 0.574138
vt 0.863768 0.602346
vt 0.804459 0.536324
vt 0.897083 0.575440
vt 0.846007 0.502996
vt 0.933144 0.552581
vt 0.891268 0.474491
vt 0.971354 0.534284
vt 0.939905 0.450985
vt 0.745122 0.824521
vt 0.656603 0.812581
vt 0.514736 0.612823
vt 0.624594 0.654733
vt 0.371322 0.020198
vt 0.320856 0.022449
vt 0.270385 0.024702
vt 0.219911 0.026953
vt 0.169440 0.029213
vt 0.118968 0.031467
vt 0.068494 0.033721
vt 0.522748 0.013435
vt 0.472269 0.015690
vt 0.360240 0.745434
vt 0.351356 0.674361
vt 0.361875 0.820659
vt 0.358616 0.156917
vt 0.347550 0.233570
vt 0.341092 0.307215
vt 0.337551 0.380781
vt 0.336886 0.454386
vt 0.339032 0.527939
vt 0.343917 0.601329
vt 0.423784 0.062551
vt 0.373320 0.064800
vt 0.322848 0.067053
vt 0.272374 0.069303
vt 0.221904 0.071564
vt 0.171431 0.073816
vt 0.120958 0.076070
vt 0.070484 0.078324
vt 0.524730 0.058040
vt 0.474267 0.060292
vt 0.135099 0.753018
vt 0.107765 0.751229
vt 0.115876 0.554209
vt 0.139905 0.552364
vt 0.162258 0.754853
vt 0.164296 0.551943
vt 0.189419 0.756433
vt 0.188797 0.552952
vt 0.216717 0.756930
vt 0.213066 0.555051
vt 0.243910 0.755860
vt 0.237060 0.557427
vt 0.271283 0.753574
vt 0.260723 0.558647
vt 0.299102 0.750754
vt 0.284392 0.558438
vt 0.052063 0.748328
vt 0.307862 0.556627
vt 0.080206 0.749658
vt 0.092221 0.556469
vt 0.112608 0.367095
vt 0.137377 0.361423
vt 0.162510 0.358718
vt 0.187682 0.359752
vt 0.212445 0.363865
vt 0.236850 0.369460
vt 0.261293 0.374085
vt 0.286340 0.376605
vt 0.063422 0.379199
vt 0.088103 0.373741
vt 0.099691 0.192353
vt 0.127779 0.187340
vt 0.156131 0.184193
vt 0.184866 0.183577
vt 0.213718 0.185437
vt 0.242882 0.189488
vt 0.272386 0.194706
vt 0.302041 0.199702
vt 0.331494 0.203752
vt 0.071612 0.198532
vt 0.083494 0.107137
vt 0.116673 0.092238
vt 0.152433 0.084554
vt 0.188378 0.086268
vt 0.222705 0.096364
vt 0.253051 0.111439
vt 0.281155 0.126728
vt 0.311512 0.138241
vt 0.343306 0.143297
vt 0.052419 0.125228
vt 0.603188 0.742323
vt 0.678523 0.462614
vt 0.766092 0.388936
vt 0.622347 0.684613
vt 0.590624 0.801733
vt 0.564343 0.474536
vt 0.797116 0.278861
vt 0.647972 0.629462
vt 0.761023 0.170335
vt 0.679754 0.577633
vt 0.670262 0.100720
vt 0.717279 0.529828
vt 0.556043 0.094038
vt 0.760037 0.486692
vt 0.457703 0.152769
vt 0.807414 0.448797
vt 0.409151 0.256941
vt 0.858626 0.416560
vt 0.426042 0.371682
vt 0.584351 0.861841
vt 0.601696 0.283727
vt 0.043237 0.204759
vt 0.022310 0.141060
vt 0.311610 0.376664
vt 0.068836 0.557987
vt 0.327153 0.747672
vt 0.449705 0.435500
vt 0.408895 0.378124
vt 0.912502 0.389900
vt 0.651671 0.866250
vt 0.461307 0.421420
vt 0.561142 0.492598
vt 0.390994 0.253984
vt 0.444170 0.140298
vt 0.551800 0.076132
vt 0.676779 0.083513
vt 0.776061 0.159732
vt 0.815512 0.278501
vt 0.781533 0.398940
vt 0.685746 0.479528
vt 0.627790 0.581947
vt 0.421802 0.017946
vt 0.018024 0.035975
vt 0.571037 0.507917
vt 0.587040 0.521876
vt 0.500254 0.495018
vt 0.389260 0.815488
vt 0.423637 0.106526
vt 0.020021 0.080576
vt 0.435588 0.524290
vt 0.399315 0.584192
vt 0.402975 0.653554
vt 0.444943 0.708917
vt 0.511401 0.731167
vt 0.579688 0.711286
vt 0.389758 0.742550
vt 0.381131 0.670326
vt 0.389447 0.165662
vt 0.778042 0.867899
vt 0.985402 0.567700
vt 0.402894 0.082371
vt 0.377742 0.236610
vt 0.371157 0.308710
vt 0.367631 0.381060
vt 0.366949 0.453501
vt 0.369037 0.525919
vt 0.373823 0.598216
vt 0.741612 0.866722
vt 0.781305 0.829586
vt 0.788968 0.791887
vt 0.950834 0.584412
vt 0.918309 0.605015
vt 0.888281 0.629258
vt 0.861175 0.656798
vt 0.837376 0.687259
vt 0.817223 0.720232
vt 0.801005 0.755269
vn 0.574947 0.207858 -0.791347
vn 0.930285 0.207858 -0.302267
vn 0.935346 0.181015 -0.303911
vn 0.578075 0.181015 -0.795652
vn -0.000001 0.207858 -0.978159
vn -0.000001 0.181015 -0.983480
vn -0.574948 0.207858 -0.791347
vn -0.578076 0.181015 -0.795652
vn -0.930284 0.207858 -0.302268
vn -0.935345 0.181015 -0.303912
vn -0.930284 0.207859 0.302268
vn -0.935345 0.181016 0.303912
vn -0.574948 0.207858 0.791347
vn -0.578075 0.181016 0.795652
vn 0.000000 0.207858 0.978159
vn 0.000000 0.181015 0.983480
vn 0.574948 0.207858 0.791347
vn 0.578075 0.181015 0.795652
vn 0.930284 0.207858 0.302268
vn 0.935345 0.181015 0.303912
vn 0.000000 1.000000 0.000000
vn -0.767288 0.590859 0.249307
vn -0.474209 0.590860 0.652694
vn -0.000005 0.590860 0.806774
vn 0.474210 0.590854 0.652699
vn 0.767287 0.590862 0.249305
vn 0.767288 0.590860 -0.249307
vn 0.474210 0.590859 -0.652695
vn 0.000006 0.590859 -0.806775
vn -0.474210 0.590854 -0.652700
vn -0.767287 0.590862 -0.249304
vn 0.876677 0.387683 0.284850
vn 0.876677 0.387683 -0.284849
vn 0.541816 0.387683 0.745746
vn 0.000000 0.387683 0.921793
vn -0.541816 0.387683 0.745746
vn -0.876677 0.387683 0.284850
vn -0.876677 0.387683 -0.284849
vn -0.541816 0.387683 -0.745746
vn -0.000001 0.387683 -0.921793
vn 0.541816 0.387684 -0.745746
vn -0.772032 0.583988 0.250848
vn -0.477141 0.583988 0.656730
vn -0.000005 0.583985 0.811765
vn 0.477147 0.583979 0.656734
vn 0.772036 0.583982 0.250848
vn 0.772032 0.583987 -0.250848
vn 0.477141 0.583988 -0.656730
vn 0.000006 0.583984 -0.811765
vn -0.477147 0.583979 -0.656733
vn -0.772036 0.583982 -0.250848
vn 0.539973 -0.818738 -0.195186
vn 0.897860 -0.423230 0.121341
vn 0.914907 -0.385829 0.118660
vn 0.596098 -0.757598 -0.265918
vn -0.029945 -0.905463 -0.423367
vn 0.037534 -0.837788 -0.544704
vn -0.587155 -0.654740 -0.475988
vn -0.540567 -0.588811 -0.600907
vn -0.925270 -0.170153 -0.339004
vn -0.904508 -0.108852 -0.412330
vn -0.925512 0.373350 -0.063543
vn -0.910420 0.409252 -0.060407
vn -0.580047 0.774993 0.250863
vn -0.569547 0.761187 0.310178
vn -0.017259 0.875414 0.483065
vn -0.030791 0.825418 0.563682
vn 0.551984 0.632041 0.543910
vn 0.516850 0.589269 0.620989
vn 0.904481 0.132756 0.405328
vn 0.880587 0.129538 0.455835
vn 0.923401 -0.379930 0.054629
vn 0.608775 -0.699181 -0.374886
vn 0.077341 -0.745257 -0.662277
vn -0.475915 -0.512857 -0.714481
vn -0.857841 -0.077387 -0.508056
vn -0.908856 0.403436 -0.105927
vn -0.598747 0.729755 0.330089
vn -0.067620 0.778811 0.623603
vn 0.493060 0.544894 0.678220
vn 0.880603 0.100844 0.462999
vn 0.905354 -0.420528 0.059077
vn 0.570505 -0.761651 -0.307265
vn 0.048253 -0.818116 -0.573026
vn -0.477848 -0.577883 -0.661599
vn -0.836255 -0.118665 -0.535346
vn -0.888722 0.410220 -0.204680
vn -0.572300 0.790118 0.219515
vn -0.018222 0.848299 0.529205
vn 0.551619 0.581725 0.597756
vn 0.908524 0.091339 0.407727
vn 0.862581 -0.493048 0.113393
vn 0.487024 -0.850469 -0.198773
vn -0.024956 -0.891501 -0.452331
vn -0.505186 -0.633288 -0.586288
vn -0.812273 -0.151334 -0.563303
vn -0.831798 0.418155 -0.365047
vn -0.514344 0.857281 -0.022787
vn 0.031232 0.949712 0.311562
vn 0.592717 0.656770 0.466197
vn 0.921979 0.086195 0.377525
vn 0.949975 0.047683 -0.308665
vn -0.011656 -0.999925 0.003788
vn -0.007204 -0.999925 0.009915
vn 0.587117 0.047683 -0.808097
vn 0.949975 0.047683 0.308666
vn -0.011656 -0.999925 -0.003787
vn -0.000000 -0.999925 0.012256
vn -0.000000 0.047683 -0.998863
vn 0.007204 -0.999925 0.009915
vn -0.587117 0.047683 -0.808097
vn 0.011656 -0.999925 0.003787
vn -0.949975 0.047683 -0.308665
vn 0.011656 -0.999925 -0.003787
vn -0.949975 0.047684 0.308666
vn 0.007204 -0.999925 -0.009915
vn -0.587116 0.047684 0.808097
vn 0.000000 -0.999925 -0.012256
vn 0.000000 0.047684 0.998863
vn -0.007204 -0.999925 -0.009915
vn 0.587117 0.047684 0.808097
vn 0.000000 -1.000000 0.000000
s 1
g Pipe Principal
f 31/1/1 22/2/2 12/3/3 13/4/4
f 30/5/5 31/1/1 13/4/4 14/6/6
f 29/7/7 30/5/5 14/6/6 15/8/8
f 28/9/9 29/7/7 15/8/8 16/10/10
f 27/11/11 28/9/9 16/10/10 17/12/12
f 26/13/13 27/11/11 17/12/12 18/14/14
f 25/15/15 26/13/13 18/14/14 19/16/16
f 24/17/17 25/15/15 19/16/16 20/18/18
f 23/19/19 24/169/17 20/131/18 21/20/20
f 22/2/2 23/19/19 21/20/20 12/3/3
f 43/21/21 42/22/22 44/156/23
f 43/21/21 44/156/23 45/155/24
f 43/21/21 45/155/24 46/154/25
f 43/21/21 46/154/25 47/153/26
f 43/21/21 47/153/26 48/152/27
f 43/21/21 48/152/27 49/151/28
f 43/21/21 49/151/28 50/147/29
f 43/21/21 50/147/29 51/145/30
f 43/21/21 51/146/30 52/142/31
f 43/21/21 52/142/31 42/22/22
f 10/170/32 23/19/19 22/2/2 1/171/33
f 9/160/34 24/169/17 23/19/19 10/170/32
f 8/172/35 25/15/15 24/17/17 9/161/34
f 7/173/36 26/13/13 25/15/15 8/172/35
f 6/174/37 27/11/11 26/13/13 7/173/36
f 5/175/38 28/9/9 27/11/11 6/174/37
f 4/176/39 29/7/7 28/9/9 5/175/38
f 3/177/40 30/5/5 29/7/7 4/176/39
f 2/178/41 31/1/1 30/5/5 3/177/40
f 1/171/33 22/2/2 31/1/1 2/178/41
f 32/158/42 1/33/33 2/41/41 33/168/43
f 33/168/43 2/41/41 3/40/40 34/167/44
f 34/167/44 3/40/40 4/39/39 35/166/45
f 35/166/45 4/39/39 5/38/38 36/165/46
f 36/165/46 5/38/38 6/37/37 37/164/47
f 37/164/47 6/37/37 7/36/36 38/163/48
f 38/163/48 7/36/36 8/35/35 39/159/49
f 39/159/49 8/35/35 9/162/34 40/149/50
f 40/148/50 9/34/34 10/32/32 41/157/51
f 41/157/51 10/32/32 1/33/33 32/158/42
f 42/143/22 32/42/42 33/43/43 44/23/23
f 44/23/23 33/43/43 34/44/44 45/24/24
f 45/24/24 34/44/44 35/45/45 46/25/25
f 46/25/25 35/45/45 36/46/46 47/26/26
f 47/26/26 36/46/46 37/47/47 48/27/27
f 48/27/27 37/47/47 38/48/48 49/28/28
f 49/28/28 38/48/48 39/49/49 50/29/29
f 50/29/29 39/49/49 40/150/50 51/144/30
f 51/30/30 40/50/50 41/51/51 52/31/31
f 52/31/31 41/51/51 32/42/42 42/143/22
s 3
f 64/52/52 63/53/53 73/54/54 74/55/55
f 65/56/56 64/52/52 74/55/55 75/57/57
f 66/58/58 65/56/56 75/57/57 76/59/59
f 67/60/60 66/58/58 76/59/59 77/61/61
f 68/62/62 67/60/60 77/61/61 78/63/63
f 69/64/64 68/62/62 78/63/63 79/65/65
f 70/66/66 69/64/64 79/65/65 80/67/67
f 71/127/68 70/66/66 80/67/67 81/69/69
f 72/70/70 71/68/68 81/126/69 82/71/71
f 63/53/53 72/70/70 82/71/71 73/54/54
f 74/55/55 73/54/54 83/72/72 84/73/73
f 75/57/57 74/55/55 84/73/73 85/74/74
f 76/59/59 75/57/57 85/74/74 86/75/75
f 77/61/61 76/59/59 86/75/75 87/76/76
f 78/63/63 77/61/61 87/76/76 88/77/77
f 79/65/65 78/63/63 88/77/77 89/78/78
f 80/67/67 79/65/65 89/78/78 90/79/79
f 81/69/69 80/67/67 90/79/79 91/125/80
f 82/71/71 81/126/69 91/80/80 92/81/81
f 73/54/54 82/71/71 92/81/81 83/72/72
f 83/72/72 53/82/82 54/83/83 84/73/73
f 84/73/73 54/83/83 55/84/84 85/74/74
f 85/74/74 55/84/84 56/85/85 86/75/75
f 86/75/75 56/85/85 57/86/86 87/76/76
f 87/76/76 57/86/86 58/87/87 88/77/77
f 88/77/77 58/87/87 59/88/88 89/78/78
f 89/78/78 59/88/88 60/89/89 90/79/79
f 90/79/79 60/89/89 61/90/90 91/125/80
f 91/80/80 61/123/90 62/91/91 92/81/81
f 92/81/81 62/91/91 53/82/82 83/72/72
f 93/92/92 94/93/93 54/83/83 53/82/82
f 94/93/93 95/94/94 55/84/84 54/83/83
f 95/94/94 96/95/95 56/85/85 55/84/84
f 96/95/95 97/96/96 57/86/86 56/85/85
f 97/96/96 98/97/97 58/87/87 57/86/86
f 98/97/97 99/98/98 59/88/88 58/87/87
f 99/98/98 100/99/99 60/89/89 59/88/88
f 100/99/99 101/100/100 61/90/90 60/89/89
f 101/124/100 102/101/101 62/91/91 61/123/90
f 102/101/101 93/92/92 53/82/82 62/91/91
s 1
f 103/141/102 104/103/103 106/104/104 105/140/105
f 104/103/103 103/141/102 121/133/106 122/107/107
f 105/140/105 106/104/104 108/108/108 107/139/109
f 107/139/109 108/108/108 110/110/110 109/138/111
f 109/138/111 110/110/110 112/112/112 111/137/113
f 111/137/113 112/112/112 114/114/114 113/136/115
f 113/136/115 114/114/114 116/116/116 115/135/117
f 115/135/117 116/116/116 118/118/118 117/134/119
f 117/134/119 118/118/118 120/120/120 119/129/121
f 119/128/121 120/132/120 122/107/107 121/133/106
f 106/104/104 104/103/103 11/122/122
f 108/108/108 106/104/104 11/122/122
f 110/110/110 108/108/108 11/122/122
f 112/112/112 110/110/110 11/122/122
f 114/114/114 112/112/112 11/122/122
f 116/116/116 114/114/114 11/122/122
f 118/118/118 116/116/116 11/122/122
f 120/120/120 118/118/118 11/122/122
f 122/107/107 120/132/120 11/122/122
f 104/103/103 122/107/107 11/122/122
f 12/3/3 103/102/102 105/105/105 13/4/4
f 13/4/4 105/105/105 107/109/109 14/6/6
f 14/6/6 107/109/109 109/111/111 15/8/8
f 15/8/8 109/111/111 111/113/113 16/10/10
f 16/10/10 111/113/113 113/115/115 17/12/12
f 17/12/12 113/115/115 115/117/117 18/14/14
f 18/14/14 115/117/117 117/119/119 19/16/16
f 19/16/16 117/119/119 119/130/121 20/18/18
f 20/131/18 119/121/121 121/106/106 21/20/20
f 21/20/20 121/106/106 103/102/102 12/3/3
